<?xml version="1.0" encoding="UTF-8" standalone="no"?>
<svg width="64px" height="47px" viewBox="0 0 64 47" version="1.1" xmlns="http://www.w3.org/2000/svg" xmlns:xlink="http://www.w3.org/1999/xlink">
    <!-- Generator: Sketch 48.1 (47250) - http://www.bohemiancoding.com/sketch -->
    <title>O2OLogo</title>
    <desc>Created with Sketch.</desc>
    <defs></defs>
    <g id="Artboard" stroke="none" stroke-width="1" fill="none" fill-rule="evenodd" transform="translate(-20.000000, -12.000000)">
        <g id="O2Otitle" transform="translate(20.000000, 12.000000)">
            <g id="O2OLogo">
                <path d="M33.3116012,16.9757922 L32,19.3394667 L30.6883988,16.9757922 C29.7771934,15.3336825 28.5725854,13.9075869 27.1562723,12.7538765 C25.3138313,11.2530477 23.1131288,10.2131673 20.7340155,9.75833197 C19.8444845,9.58827276 18.9300125,9.5 18,9.5 C9.99187113,9.5 3.5,15.9918711 3.5,24 C3.5,32.0081289 9.99187113,38.5 18,38.5 C23.3294869,38.5 28.1486357,35.6011885 30.6883988,31.0242078 L32,28.6605333 L33.3116012,31.0242078 C35.8513643,35.6011885 40.6705131,38.5 46,38.5 C54.0081289,38.5 60.5,32.0081289 60.5,24 C60.5,15.9918711 54.0081289,9.5 46,9.5 C40.6705131,9.5 35.8513643,12.3988115 33.3116012,16.9757922 Z M46,6.5 C55.6649831,6.5 63.5,14.3350169 63.5,24 C63.5,33.6649831 55.6649831,41.5 46,41.5 C40.395063,41.5 35.2557983,38.8414893 32,34.5031411 C28.7442017,38.8414893 23.604937,41.5 18,41.5 C8.33501688,41.5 0.5,33.6649831 0.5,24 C0.5,14.3350169 8.33501688,6.5 18,6.5 C19.5194397,6.5 21.0046573,6.6953727 22.4274073,7.06662073 C26.2529235,8.06483926 29.6268145,10.3345915 32,13.4968589 C35.2557983,9.15851075 40.395063,6.5 46,6.5 Z" id="Combined-Shape-Copy-6" fill="#FFFFFF" fill-rule="nonzero"></path>
                <path d="M33.2578374,21.3894637 C34.8721771,19.8925305 35.9278822,18.66563 36.4120097,17.7738163 C36.8525933,16.9622148 37.0817165,15.9613081 37.0817165,14.744 C37.0817165,13.1067097 36.65499,11.9429102 35.8287762,11.1274264 C35.0028155,10.3121925 33.7574188,9.88 31.9777165,9.88 C30.3315634,9.88 29.123884,10.3201822 28.2379168,11.1840003 C27.2636118,12.1339476 26.7442858,13.2259013 26.553526,14.7922091 C26.473489,15.6726159 26.009276,16.7954258 25.2934325,17.3681006 C24.5966772,17.9301946 23.9555312,18.1899271 22.9908044,18.1899271 C22.3807372,18.1899271 21.8335963,18.0639661 21.3402977,17.7950519 C20.9670042,17.5915568 20.7512182,17.4034633 20.4279014,17.070202 C19.7459703,16.3672962 19.5351673,15.4911796 19.5351673,14.6111377 C19.5351673,12.8920386 19.9829022,11.3174926 20.9248621,9.43357281 C21.8571888,7.56891957 23.2721654,6.02795188 25.1362013,4.82964305 C27.0452416,3.60240286 29.3401097,3 31.9777165,3 C35.9285269,3 39.0166967,4.12650221 41.0988554,6.44890997 C43.1023781,8.68360834 44.1057165,11.481379 44.1057165,14.744 C44.1057165,16.9888497 43.6108388,19.0444954 42.6163004,20.8805663 C41.670119,22.6273628 40.2075772,24.4070823 38.2805261,26.197579 C32.7600744,31.6606762 29.1217008,35.2474632 27.345259,36.9775104 C27.5014439,37.0299565 27.6655207,37.0821855 27.8362118,37.1336534 C29.3268099,37.5831083 31.060398,37.8965907 31.9857165,37.8965907 C33.6263685,37.8965907 36.2974319,37.0335546 39.8691796,35.2708063 C39.9381064,35.2362925 39.9381064,35.2362925 40.0196111,35.1949765 C40.8120073,34.7936617 41.2544824,34.6289345 41.981508,34.6289345 C43.2350163,34.6289345 44.4625614,35.3109408 44.8813753,36.6249761 C45.2055013,37.6419265 44.9578816,39.0143975 44.3239868,39.8225161 C44.0780787,40.1360112 43.8063819,40.3962642 43.358118,40.7859686 C43.3031938,40.8336374 43.3031938,40.8336374 43.2495956,40.8799374 C43.1747928,40.9444501 43.1747928,40.9444501 43.1035028,41.0059438 C41.4738154,42.4131839 36.2049792,44.4842497 31.9857165,44.4842497 C27.4761915,44.4842497 24.4677827,43.4019192 21.4042999,41.4634593 C20.8594264,41.1186833 20.2384424,40.5493975 19.8220606,40.0080798 C19.6613639,39.7991658 19.6290962,39.7560302 19.5462556,39.6297261 C19.1379657,39.0072205 19,38.3930934 19,37.4867005 C19,36.0854818 19.6414197,34.8811482 20.8134204,33.8318757 L33.2578374,21.3894637 Z" id="Combined-Shape-Copy-11" fill="#373D41" fill-rule="nonzero"></path>
                <circle id="Combined-Shape-Copy-7" stroke="#FFFFFF" stroke-width="3" fill="#FFFFFF" transform="translate(16.000000, 27.000000) rotate(90.000000) translate(-16.000000, -27.000000) " cx="16" cy="27" r="8"></circle>
                <circle id="Combined-Shape-Copy-8" stroke="#FFFFFF" stroke-width="3" fill="#FFFFFF" transform="translate(44.000000, 27.000000) rotate(90.000000) translate(-44.000000, -27.000000) " cx="44" cy="27" r="8"></circle>
                <path d="M33.4857165,5.06500627 C36.1586634,5.30527737 38.1999812,6.21160297 39.6097165,7.784 C41.2737248,9.64000928 42.1057165,11.9599861 42.1057165,14.744 C42.1057165,16.6640096 41.6897207,18.3919923 40.8577165,19.928 C40.0257124,21.4640077 38.6977256,23.0799915 36.8737165,24.776 C29.9611554,31.6167435 25.9941973,35.5207435 24.9728423,36.488 C24.7035609,36.7430182 24.2797032,37.2244743 24.2797032,37.3722383 C24.2797032,38.476465 29.655383,39.8965907 31.9857165,39.8965907 C34.0054941,39.8965907 36.9300465,38.9516508 40.7593736,37.061771 C41.1573082,36.8639788 41.565078,36.6289345 41.981508,36.6289345 C42.397938,36.6289345 42.8467399,36.8273228 42.9758222,37.2323206 C43.1049045,37.6373185 42.9631583,38.316849 42.7503521,38.5881443 C42.5375458,38.8594396 42.1535305,39.1837963 41.7963786,39.492198 C41.4765097,39.7684058 37.7305614,41.9498419 33.4857165,42.4022715 L33.4857165,45.5 C33.4857165,46.3284271 32.8141436,47 31.9857165,47 C31.1572894,47 30.4857165,46.3284271 30.4857165,45.5 L30.4857165,42.4304052 C26.3209163,42.1261607 23.7901447,40.6063735 22.4737165,39.7733859 C22.1409142,39.5628008 21.6909026,39.157345 21.4073319,38.7886886 C21.1237613,38.4200322 21,38.2783799 21,37.4867005 C21,36.6950212 21.3857125,35.9920035 22.1857165,35.288 L34.6177165,22.856 C36.3777253,21.2239918 37.5617135,19.8480056 38.1697165,18.728 C38.7777196,17.6079944 39.0817165,16.2800077 39.0817165,14.744 C39.0817165,12.5999893 38.4657227,10.9200061 37.2337165,9.704 C36.0017104,8.48799392 34.2497279,7.88 31.9777165,7.88 C29.8337058,7.88 28.1217229,8.50399376 26.8417165,9.752 C25.5617101,11.0000062 24.8177408,12.4991271 24.5617395,14.6111377 C24.5297394,14.9631394 24.2840436,15.614362 24.0440424,15.806363 C23.8040412,15.998364 23.6085485,16.1899271 22.9908044,16.1899271 C22.3730603,16.1899271 22.1357319,15.9583069 21.86337,15.6775678 C21.5910082,15.3968287 21.5351673,14.8671389 21.5351673,14.6111377 C21.5351673,13.1692265 21.9457127,11.8640077 22.7137165,10.328 C23.4817204,8.79199232 24.6497087,7.52000504 26.2177165,6.512 C27.4299897,5.73268149 28.8526475,5.2546246 30.4857165,5.07782233 L30.4857165,1.5 C30.4857165,0.671572875 31.1572894,0 31.9857165,0 C32.8141436,0 33.4857165,0.671572875 33.4857165,1.5 L33.4857165,5.06500627 Z" id="Combined-Shape-Copy-9" fill="#00C1DE"></path>
            </g>
        </g>
    </g>
</svg>